{
	"asset":{
		"copyright":"CirilXD",
		"generator":"Khronos glTF Blender I/O v4.1.63",
		"version":"2.0"
	},
	"scene":0,
	"scenes":[
		{
			"name":"Scene",
			"nodes":[
				0
			]
		}
	],
	"nodes":[
		{
			"mesh":0,
			"name":"alchemy_glass"
		}
	],
	"materials":[
		{
			"alphaMode":"BLEND",
			"name":"MainTexMat_Glass",
			"pbrMetallicRoughness":{
				"baseColorFactor":[
					1,
					1,
					1,
					0.7799999713897705
				],
				"baseColorTexture":{
					"index":0
				},
				"metallicFactor":0,
				"roughnessFactor":0.10000000149011612
			}
		}
	],
	"meshes":[
		{
			"name":"alchemy_glass",
			"primitives":[
				{
					"attributes":{
						"POSITION":0,
						"NORMAL":1,
						"TEXCOORD_0":2
					},
					"indices":3,
					"material":0
				}
			]
		}
	],
	"textures":[
		{
			"sampler":0,
			"source":0
		}
	],
	"images":[
		{
			"mimeType":"image/png",
			"name":"MainTexturePalette",
			"uri":"MainTexturePalette.png"
		}
	],
	"accessors":[
		{
			"bufferView":0,
			"componentType":5126,
			"count":1938,
			"max":[
				1.100000262260437,
				3.0000007152557373,
				1.399999737739563
			],
			"min":[
				-0.20000001788139343,
				1.700000286102295,
				-9.083467489290342e-07
			],
			"type":"VEC3"
		},
		{
			"bufferView":1,
			"componentType":5126,
			"count":1938,
			"type":"VEC3"
		},
		{
			"bufferView":2,
			"componentType":5126,
			"count":1938,
			"type":"VEC2"
		},
		{
			"bufferView":3,
			"componentType":5123,
			"count":3384,
			"type":"SCALAR"
		}
	],
	"bufferViews":[
		{
			"buffer":0,
			"byteLength":23256,
			"byteOffset":0,
			"target":34962
		},
		{
			"buffer":0,
			"byteLength":23256,
			"byteOffset":23256,
			"target":34962
		},
		{
			"buffer":0,
			"byteLength":15504,
			"byteOffset":46512,
			"target":34962
		},
		{
			"buffer":0,
			"byteLength":6768,
			"byteOffset":62016,
			"target":34963
		}
	],
	"samplers":[
		{
			"magFilter":9728,
			"minFilter":9984
		}
	],
	"buffers":[
		{
			"byteLength":68784,
			"uri":"alchemy_glass.bin"
		}
	]
}
