{
	"asset":{
		"copyright":"CirilXD",
		"generator":"Khronos glTF Blender I/O v4.1.63",
		"version":"2.0"
	},
	"scene":0,
	"scenes":[
		{
			"name":"Scene",
			"nodes":[
				0
			]
		}
	],
	"nodes":[
		{
			"mesh":0,
			"name":"alchemy_table"
		}
	],
	"materials":[
		{
			"name":"MainTexMat",
			"pbrMetallicRoughness":{
				"baseColorTexture":{
					"index":0
				},
				"metallicFactor":0
			}
		}
	],
	"meshes":[
		{
			"name":"alchemy_table",
			"primitives":[
				{
					"attributes":{
						"POSITION":0,
						"NORMAL":1,
						"TEXCOORD_0":2
					},
					"indices":3,
					"material":0
				}
			]
		}
	],
	"textures":[
		{
			"sampler":0,
			"source":0
		}
	],
	"images":[
		{
			"mimeType":"image/png",
			"name":"MainTexturePalette",
			"uri":"MainTexturePalette.png"
		}
	],
	"accessors":[
		{
			"bufferView":0,
			"componentType":5126,
			"count":11215,
			"max":[
				1.5000003576278687,
				2.000000476837158,
				1.6000003814697266
			],
			"min":[
				-1.200000286102295,
				-4.981500865142152e-07,
				-1.6000005006790161
			],
			"type":"VEC3"
		},
		{
			"bufferView":1,
			"componentType":5126,
			"count":11215,
			"type":"VEC3"
		},
		{
			"bufferView":2,
			"componentType":5126,
			"count":11215,
			"type":"VEC2"
		},
		{
			"bufferView":3,
			"componentType":5123,
			"count":22992,
			"type":"SCALAR"
		}
	],
	"bufferViews":[
		{
			"buffer":0,
			"byteLength":134580,
			"byteOffset":0,
			"target":34962
		},
		{
			"buffer":0,
			"byteLength":134580,
			"byteOffset":134580,
			"target":34962
		},
		{
			"buffer":0,
			"byteLength":89720,
			"byteOffset":269160,
			"target":34962
		},
		{
			"buffer":0,
			"byteLength":45984,
			"byteOffset":358880,
			"target":34963
		}
	],
	"samplers":[
		{
			"magFilter":9729,
			"minFilter":9987
		}
	],
	"buffers":[
		{
			"byteLength":404864,
			"uri":"alchemy_table.bin"
		}
	]
}
