{
	"asset":{
		"copyright":"CirilXD",
		"generator":"Khronos glTF Blender I/O v4.1.63",
		"version":"2.0"
	},
	"scene":0,
	"scenes":[
		{
			"name":"Scene",
			"nodes":[
				0
			]
		}
	],
	"nodes":[
		{
			"mesh":0,
			"name":"column_wood_wines"
		}
	],
	"materials":[
		{
			"name":"MainTexMat",
			"pbrMetallicRoughness":{
				"baseColorTexture":{
					"index":0
				},
				"metallicFactor":0
			}
		}
	],
	"meshes":[
		{
			"name":"column_wood_wines",
			"primitives":[
				{
					"attributes":{
						"POSITION":0,
						"NORMAL":1,
						"TEXCOORD_0":2
					},
					"indices":3,
					"material":0
				}
			]
		}
	],
	"textures":[
		{
			"sampler":0,
			"source":0
		}
	],
	"images":[
		{
			"mimeType":"image/png",
			"name":"MainTexturePalette",
			"uri":"MainTexturePalette.png"
		}
	],
	"accessors":[
		{
			"bufferView":0,
			"componentType":5126,
			"count":3725,
			"max":[
				0.8000001907348633,
				3.2000010013580322,
				0.8000001907348633
			],
			"min":[
				-0.8000001907348633,
				-2.1206246003657725e-07,
				-0.8000007271766663
			],
			"type":"VEC3"
		},
		{
			"bufferView":1,
			"componentType":5126,
			"count":3725,
			"type":"VEC3"
		},
		{
			"bufferView":2,
			"componentType":5126,
			"count":3725,
			"type":"VEC2"
		},
		{
			"bufferView":3,
			"componentType":5123,
			"count":6624,
			"type":"SCALAR"
		}
	],
	"bufferViews":[
		{
			"buffer":0,
			"byteLength":44700,
			"byteOffset":0,
			"target":34962
		},
		{
			"buffer":0,
			"byteLength":44700,
			"byteOffset":44700,
			"target":34962
		},
		{
			"buffer":0,
			"byteLength":29800,
			"byteOffset":89400,
			"target":34962
		},
		{
			"buffer":0,
			"byteLength":13248,
			"byteOffset":119200,
			"target":34963
		}
	],
	"samplers":[
		{
			"magFilter":9729,
			"minFilter":9987
		}
	],
	"buffers":[
		{
			"byteLength":132448,
			"uri":"column_wood_wines.bin"
		}
	]
}
