{
	"asset":{
		"copyright":"CirilXD",
		"generator":"Khronos glTF Blender I/O v4.1.63",
		"version":"2.0"
	},
	"extensionsUsed":[
		"KHR_materials_specular",
		"KHR_materials_ior"
	],
	"scene":0,
	"scenes":[
		{
			"name":"Scene",
			"nodes":[
				0
			]
		}
	],
	"nodes":[
		{
			"mesh":0,
			"name":"column_big_base"
		}
	],
	"materials":[
		{
			"extensions":{
				"KHR_materials_specular":{
					"specularColorFactor":[
						2.0,
						2.0,
						2.0
					]
				},
				"KHR_materials_ior":{
					"ior":1.2999999523162842
				}
			},
			"name":"MainTexMat_Metal",
			"pbrMetallicRoughness":{
				"baseColorTexture":{
					"index":0
				},
				"metallicFactor":0.3799999952316284,
				"roughnessFactor":0.10000000149011612
			}
		}
	],
	"meshes":[
		{
			"name":"column_big_base",
			"primitives":[
				{
					"attributes":{
						"POSITION":0,
						"NORMAL":1,
						"TEXCOORD_0":2
					},
					"indices":3,
					"material":0
				}
			]
		}
	],
	"textures":[
		{
			"sampler":0,
			"source":0
		}
	],
	"images":[
		{
			"mimeType":"image/png",
			"name":"MainTexturePalette",
			"uri":"MainTexturePalette.png"
		}
	],
	"accessors":[
		{
			"bufferView":0,
			"componentType":5126,
			"count":4308,
			"max":[
				0.6000001430511475,
				3.2000010013580322,
				0.6000000834465027
			],
			"min":[
				-0.6000001430511475,
				-1.9520371097314637e-07,
				-0.6000011563301086
			],
			"type":"VEC3"
		},
		{
			"bufferView":1,
			"componentType":5126,
			"count":4308,
			"type":"VEC3"
		},
		{
			"bufferView":2,
			"componentType":5126,
			"count":4308,
			"type":"VEC2"
		},
		{
			"bufferView":3,
			"componentType":5123,
			"count":8508,
			"type":"SCALAR"
		}
	],
	"bufferViews":[
		{
			"buffer":0,
			"byteLength":51696,
			"byteOffset":0,
			"target":34962
		},
		{
			"buffer":0,
			"byteLength":51696,
			"byteOffset":51696,
			"target":34962
		},
		{
			"buffer":0,
			"byteLength":34464,
			"byteOffset":103392,
			"target":34962
		},
		{
			"buffer":0,
			"byteLength":17016,
			"byteOffset":137856,
			"target":34963
		}
	],
	"samplers":[
		{
			"magFilter":9729,
			"minFilter":9987
		}
	],
	"buffers":[
		{
			"byteLength":154872,
			"uri":"column_big_base.bin"
		}
	]
}
