{
	"asset":{
		"copyright":"CirilXD",
		"generator":"Khronos glTF Blender I/O v4.1.63",
		"version":"2.0"
	},
	"scene":0,
	"scenes":[
		{
			"name":"Scene",
			"nodes":[
				0
			]
		}
	],
	"nodes":[
		{
			"mesh":0,
			"name":"column_big_wines"
		}
	],
	"materials":[
		{
			"name":"MainTexMat",
			"pbrMetallicRoughness":{
				"baseColorTexture":{
					"index":0
				},
				"metallicFactor":0
			}
		}
	],
	"meshes":[
		{
			"name":"column_big_wines",
			"primitives":[
				{
					"attributes":{
						"POSITION":0,
						"NORMAL":1,
						"TEXCOORD_0":2
					},
					"indices":3,
					"material":0
				}
			]
		}
	],
	"textures":[
		{
			"sampler":0,
			"source":0
		}
	],
	"images":[
		{
			"mimeType":"image/png",
			"name":"MainTexturePalette",
			"uri":"MainTexturePalette.png"
		}
	],
	"accessors":[
		{
			"bufferView":0,
			"componentType":5126,
			"count":2779,
			"max":[
				0.6000001430511475,
				3.2000010013580322,
				0.7000001072883606
			],
			"min":[
				-0.7000001668930054,
				0.09999984502792358,
				-0.600000262260437
			],
			"type":"VEC3"
		},
		{
			"bufferView":1,
			"componentType":5126,
			"count":2779,
			"type":"VEC3"
		},
		{
			"bufferView":2,
			"componentType":5126,
			"count":2779,
			"type":"VEC2"
		},
		{
			"bufferView":3,
			"componentType":5123,
			"count":4800,
			"type":"SCALAR"
		}
	],
	"bufferViews":[
		{
			"buffer":0,
			"byteLength":33348,
			"byteOffset":0,
			"target":34962
		},
		{
			"buffer":0,
			"byteLength":33348,
			"byteOffset":33348,
			"target":34962
		},
		{
			"buffer":0,
			"byteLength":22232,
			"byteOffset":66696,
			"target":34962
		},
		{
			"buffer":0,
			"byteLength":9600,
			"byteOffset":88928,
			"target":34963
		}
	],
	"samplers":[
		{
			"magFilter":9729,
			"minFilter":9987
		}
	],
	"buffers":[
		{
			"byteLength":98528,
			"uri":"column_big_wines.bin"
		}
	]
}
