{
	"asset":{
		"copyright":"CirilXD",
		"generator":"Khronos glTF Blender I/O v4.1.63",
		"version":"2.0"
	},
	"scene":0,
	"scenes":[
		{
			"name":"Scene",
			"nodes":[
				0
			]
		}
	],
	"nodes":[
		{
			"mesh":0,
			"name":"column_wines"
		}
	],
	"materials":[
		{
			"name":"MainTexMat",
			"pbrMetallicRoughness":{
				"baseColorTexture":{
					"index":0
				},
				"metallicFactor":0
			}
		}
	],
	"meshes":[
		{
			"name":"column_wines",
			"primitives":[
				{
					"attributes":{
						"POSITION":0,
						"NORMAL":1,
						"TEXCOORD_0":2
					},
					"indices":3,
					"material":0
				}
			]
		}
	],
	"textures":[
		{
			"sampler":0,
			"source":0
		}
	],
	"images":[
		{
			"mimeType":"image/png",
			"name":"MainTexturePalette",
			"uri":"MainTexturePalette.png"
		}
	],
	"accessors":[
		{
			"bufferView":0,
			"componentType":5126,
			"count":2379,
			"max":[
				0.40000009536743164,
				3.200000762939453,
				0.40000006556510925
			],
			"min":[
				-0.40000009536743164,
				-1.2117854453208565e-07,
				-0.40000012516975403
			],
			"type":"VEC3"
		},
		{
			"bufferView":1,
			"componentType":5126,
			"count":2379,
			"type":"VEC3"
		},
		{
			"bufferView":2,
			"componentType":5126,
			"count":2379,
			"type":"VEC2"
		},
		{
			"bufferView":3,
			"componentType":5123,
			"count":4068,
			"type":"SCALAR"
		}
	],
	"bufferViews":[
		{
			"buffer":0,
			"byteLength":28548,
			"byteOffset":0,
			"target":34962
		},
		{
			"buffer":0,
			"byteLength":28548,
			"byteOffset":28548,
			"target":34962
		},
		{
			"buffer":0,
			"byteLength":19032,
			"byteOffset":57096,
			"target":34962
		},
		{
			"buffer":0,
			"byteLength":8136,
			"byteOffset":76128,
			"target":34963
		}
	],
	"samplers":[
		{
			"magFilter":9729,
			"minFilter":9987
		}
	],
	"buffers":[
		{
			"byteLength":84264,
			"uri":"column_wines.bin"
		}
	]
}
