{
	"asset":{
		"copyright":"CirilXD",
		"generator":"Khronos glTF Blender I/O v4.1.63",
		"version":"2.0"
	},
	"extensionsUsed":[
		"KHR_materials_specular",
		"KHR_materials_ior"
	],
	"scene":0,
	"scenes":[
		{
			"name":"Scene",
			"nodes":[
				0
			]
		}
	],
	"nodes":[
		{
			"mesh":0,
			"name":"cupboard"
		}
	],
	"materials":[
		{
			"extensions":{
				"KHR_materials_specular":{
					"specularColorFactor":[
						2.0,
						2.0,
						2.0
					]
				},
				"KHR_materials_ior":{
					"ior":1.2999999523162842
				}
			},
			"name":"MainTexMat_Metal",
			"pbrMetallicRoughness":{
				"baseColorTexture":{
					"index":0
				},
				"metallicFactor":0.3799999952316284,
				"roughnessFactor":0.10000000149011612
			}
		}
	],
	"meshes":[
		{
			"name":"cupboard",
			"primitives":[
				{
					"attributes":{
						"POSITION":0,
						"NORMAL":1,
						"TEXCOORD_0":2
					},
					"indices":3,
					"material":0
				}
			]
		}
	],
	"textures":[
		{
			"sampler":0,
			"source":0
		}
	],
	"images":[
		{
			"mimeType":"image/png",
			"name":"MainTexturePalette",
			"uri":"MainTexturePalette.png"
		}
	],
	"accessors":[
		{
			"bufferView":0,
			"componentType":5126,
			"count":24423,
			"max":[
				0.9000002145767212,
				3.2000012397766113,
				1.600000262260437
			],
			"min":[
				-0.7000001668930054,
				-3.7644119288415823e-07,
				-1.600001335144043
			],
			"type":"VEC3"
		},
		{
			"bufferView":1,
			"componentType":5126,
			"count":24423,
			"type":"VEC3"
		},
		{
			"bufferView":2,
			"componentType":5126,
			"count":24423,
			"type":"VEC2"
		},
		{
			"bufferView":3,
			"componentType":5123,
			"count":55536,
			"type":"SCALAR"
		}
	],
	"bufferViews":[
		{
			"buffer":0,
			"byteLength":293076,
			"byteOffset":0,
			"target":34962
		},
		{
			"buffer":0,
			"byteLength":293076,
			"byteOffset":293076,
			"target":34962
		},
		{
			"buffer":0,
			"byteLength":195384,
			"byteOffset":586152,
			"target":34962
		},
		{
			"buffer":0,
			"byteLength":111072,
			"byteOffset":781536,
			"target":34963
		}
	],
	"samplers":[
		{
			"magFilter":9729,
			"minFilter":9987
		}
	],
	"buffers":[
		{
			"byteLength":892608,
			"uri":"cupboard.bin"
		}
	]
}
