{
	"asset":{
		"copyright":"CirilXD",
		"generator":"Khronos glTF Blender I/O v4.1.63",
		"version":"2.0"
	},
	"extensionsUsed":[
		"KHR_materials_specular",
		"KHR_materials_ior"
	],
	"scene":0,
	"scenes":[
		{
			"name":"Scene",
			"nodes":[
				0
			]
		}
	],
	"nodes":[
		{
			"mesh":0,
			"name":"door"
		}
	],
	"materials":[
		{
			"extensions":{
				"KHR_materials_specular":{
					"specularColorFactor":[
						2.0,
						2.0,
						2.0
					]
				},
				"KHR_materials_ior":{
					"ior":1.2999999523162842
				}
			},
			"name":"MainTexMat_Metal",
			"pbrMetallicRoughness":{
				"baseColorTexture":{
					"index":0
				},
				"metallicFactor":0.3799999952316284,
				"roughnessFactor":0.10000000149011612
			}
		}
	],
	"meshes":[
		{
			"name":"door",
			"primitives":[
				{
					"attributes":{
						"POSITION":0,
						"NORMAL":1,
						"TEXCOORD_0":2
					},
					"indices":3,
					"material":0
				}
			]
		}
	],
	"textures":[
		{
			"sampler":0,
			"source":0
		}
	],
	"images":[
		{
			"mimeType":"image/png",
			"name":"MainTexturePalette",
			"uri":"MainTexturePalette.png"
		}
	],
	"accessors":[
		{
			"bufferView":0,
			"componentType":5126,
			"count":3896,
			"max":[
				0.10000026226043701,
				3.2000010013580322,
				0.8000001907348633
			],
			"min":[
				-0.29999983310699463,
				-2.423570890641713e-07,
				-0.8000011444091797
			],
			"type":"VEC3"
		},
		{
			"bufferView":1,
			"componentType":5126,
			"count":3896,
			"type":"VEC3"
		},
		{
			"bufferView":2,
			"componentType":5126,
			"count":3896,
			"type":"VEC2"
		},
		{
			"bufferView":3,
			"componentType":5123,
			"count":9300,
			"type":"SCALAR"
		}
	],
	"bufferViews":[
		{
			"buffer":0,
			"byteLength":46752,
			"byteOffset":0,
			"target":34962
		},
		{
			"buffer":0,
			"byteLength":46752,
			"byteOffset":46752,
			"target":34962
		},
		{
			"buffer":0,
			"byteLength":31168,
			"byteOffset":93504,
			"target":34962
		},
		{
			"buffer":0,
			"byteLength":18600,
			"byteOffset":124672,
			"target":34963
		}
	],
	"samplers":[
		{
			"magFilter":9729,
			"minFilter":9987
		}
	],
	"buffers":[
		{
			"byteLength":143272,
			"uri":"door.bin"
		}
	]
}
