{
	"asset":{
		"copyright":"CirilXD",
		"generator":"Khronos glTF Blender I/O v4.1.63",
		"version":"2.0"
	},
	"scene":0,
	"scenes":[
		{
			"name":"Scene",
			"nodes":[
				0
			]
		}
	],
	"nodes":[
		{
			"mesh":0,
			"name":"jar_glass"
		}
	],
	"materials":[
		{
			"alphaMode":"BLEND",
			"name":"MainTexMat_Glass",
			"pbrMetallicRoughness":{
				"baseColorFactor":[
					1,
					1,
					1,
					0.7799999713897705
				],
				"baseColorTexture":{
					"index":0
				},
				"metallicFactor":0,
				"roughnessFactor":0.10000000149011612
			}
		}
	],
	"meshes":[
		{
			"name":"jar_glass",
			"primitives":[
				{
					"attributes":{
						"POSITION":0,
						"NORMAL":1,
						"TEXCOORD_0":2
					},
					"indices":3,
					"material":0
				}
			]
		}
	],
	"textures":[
		{
			"sampler":0,
			"source":0
		}
	],
	"images":[
		{
			"mimeType":"image/png",
			"name":"MainTexturePalette",
			"uri":"MainTexturePalette.png"
		}
	],
	"accessors":[
		{
			"bufferView":0,
			"componentType":5126,
			"count":3913,
			"max":[
				0.7000001668930054,
				1.4000005722045898,
				0.7000001668930054
			],
			"min":[
				-0.7000001668930054,
				-2.1206246003657725e-07,
				-0.7000005841255188
			],
			"type":"VEC3"
		},
		{
			"bufferView":1,
			"componentType":5126,
			"count":3913,
			"type":"VEC3"
		},
		{
			"bufferView":2,
			"componentType":5126,
			"count":3913,
			"type":"VEC2"
		},
		{
			"bufferView":3,
			"componentType":5123,
			"count":7776,
			"type":"SCALAR"
		}
	],
	"bufferViews":[
		{
			"buffer":0,
			"byteLength":46956,
			"byteOffset":0,
			"target":34962
		},
		{
			"buffer":0,
			"byteLength":46956,
			"byteOffset":46956,
			"target":34962
		},
		{
			"buffer":0,
			"byteLength":31304,
			"byteOffset":93912,
			"target":34962
		},
		{
			"buffer":0,
			"byteLength":15552,
			"byteOffset":125216,
			"target":34963
		}
	],
	"samplers":[
		{
			"magFilter":9728,
			"minFilter":9984
		}
	],
	"buffers":[
		{
			"byteLength":140768,
			"uri":"jar_glass.bin"
		}
	]
}
