{
	"asset":{
		"copyright":"CirilXD",
		"generator":"Khronos glTF Blender I/O v4.1.63",
		"version":"2.0"
	},
	"scene":0,
	"scenes":[
		{
			"name":"Scene",
			"nodes":[
				0
			]
		}
	],
	"nodes":[
		{
			"mesh":0,
			"name":"potion_small_glass"
		}
	],
	"materials":[
		{
			"alphaMode":"BLEND",
			"name":"MainTexMat_Glass",
			"pbrMetallicRoughness":{
				"baseColorFactor":[
					1,
					1,
					1,
					0.7799999713897705
				],
				"baseColorTexture":{
					"index":0
				},
				"metallicFactor":0,
				"roughnessFactor":0.10000000149011612
			}
		}
	],
	"meshes":[
		{
			"name":"potion_small_glass",
			"primitives":[
				{
					"attributes":{
						"POSITION":0,
						"NORMAL":1,
						"TEXCOORD_0":2
					},
					"indices":3,
					"material":0
				}
			]
		}
	],
	"textures":[
		{
			"sampler":0,
			"source":0
		}
	],
	"images":[
		{
			"mimeType":"image/png",
			"name":"MainTexturePalette",
			"uri":"MainTexturePalette.png"
		}
	],
	"accessors":[
		{
			"bufferView":0,
			"componentType":5126,
			"count":935,
			"max":[
				0.30000007152557373,
				1.200000286102295,
				0.30000007152557373
			],
			"min":[
				-0.30000007152557373,
				-9.088390839906424e-08,
				-0.3000001907348633
			],
			"type":"VEC3"
		},
		{
			"bufferView":1,
			"componentType":5126,
			"count":935,
			"type":"VEC3"
		},
		{
			"bufferView":2,
			"componentType":5126,
			"count":935,
			"type":"VEC2"
		},
		{
			"bufferView":3,
			"componentType":5123,
			"count":1920,
			"type":"SCALAR"
		}
	],
	"bufferViews":[
		{
			"buffer":0,
			"byteLength":11220,
			"byteOffset":0,
			"target":34962
		},
		{
			"buffer":0,
			"byteLength":11220,
			"byteOffset":11220,
			"target":34962
		},
		{
			"buffer":0,
			"byteLength":7480,
			"byteOffset":22440,
			"target":34962
		},
		{
			"buffer":0,
			"byteLength":3840,
			"byteOffset":29920,
			"target":34963
		}
	],
	"samplers":[
		{
			"magFilter":9728,
			"minFilter":9984
		}
	],
	"buffers":[
		{
			"byteLength":33760,
			"uri":"potion_small_glass.bin"
		}
	]
}
