{
	"asset":{
		"copyright":"CirilXD",
		"generator":"Khronos glTF Blender I/O v4.1.63",
		"version":"2.0"
	},
	"scene":0,
	"scenes":[
		{
			"name":"Scene",
			"nodes":[
				0
			]
		}
	],
	"nodes":[
		{
			"mesh":0,
			"name":"potion_small_paper"
		}
	],
	"materials":[
		{
			"name":"MainTexMat",
			"pbrMetallicRoughness":{
				"baseColorTexture":{
					"index":0
				},
				"metallicFactor":0
			}
		}
	],
	"meshes":[
		{
			"name":"potion_small_paper",
			"primitives":[
				{
					"attributes":{
						"POSITION":0,
						"NORMAL":1,
						"TEXCOORD_0":2
					},
					"indices":3,
					"material":0
				}
			]
		}
	],
	"textures":[
		{
			"sampler":0,
			"source":0
		}
	],
	"images":[
		{
			"mimeType":"image/png",
			"name":"MainTexturePalette",
			"uri":"MainTexturePalette.png"
		}
	],
	"accessors":[
		{
			"bufferView":0,
			"componentType":5126,
			"count":390,
			"max":[
				0.30000007152557373,
				0.3000001609325409,
				0.30000004172325134
			],
			"min":[
				-0.30000007152557373,
				0.09999993443489075,
				-0.3000001609325409
			],
			"type":"VEC3"
		},
		{
			"bufferView":1,
			"componentType":5126,
			"count":390,
			"type":"VEC3"
		},
		{
			"bufferView":2,
			"componentType":5126,
			"count":390,
			"type":"VEC2"
		},
		{
			"bufferView":3,
			"componentType":5123,
			"count":720,
			"type":"SCALAR"
		}
	],
	"bufferViews":[
		{
			"buffer":0,
			"byteLength":4680,
			"byteOffset":0,
			"target":34962
		},
		{
			"buffer":0,
			"byteLength":4680,
			"byteOffset":4680,
			"target":34962
		},
		{
			"buffer":0,
			"byteLength":3120,
			"byteOffset":9360,
			"target":34962
		},
		{
			"buffer":0,
			"byteLength":1440,
			"byteOffset":12480,
			"target":34963
		}
	],
	"samplers":[
		{
			"magFilter":9729,
			"minFilter":9987
		}
	],
	"buffers":[
		{
			"byteLength":13920,
			"uri":"potion_small_paper.bin"
		}
	]
}
