{
	"asset":{
		"copyright":"CirilXD",
		"generator":"Khronos glTF Blender I/O v4.1.63",
		"version":"2.0"
	},
	"scene":0,
	"scenes":[
		{
			"name":"Scene",
			"nodes":[
				0
			]
		}
	],
	"nodes":[
		{
			"mesh":0,
			"name":"tile_floor_wines"
		}
	],
	"materials":[
		{
			"name":"MainTexMat",
			"pbrMetallicRoughness":{
				"baseColorTexture":{
					"index":0
				},
				"metallicFactor":0
			}
		}
	],
	"meshes":[
		{
			"name":"tile_floor_wines",
			"primitives":[
				{
					"attributes":{
						"POSITION":0,
						"NORMAL":1,
						"TEXCOORD_0":2
					},
					"indices":3,
					"material":0
				}
			]
		}
	],
	"textures":[
		{
			"sampler":0,
			"source":0
		}
	],
	"images":[
		{
			"mimeType":"image/png",
			"name":"MainTexturePalette",
			"uri":"MainTexturePalette.png"
		}
	],
	"accessors":[
		{
			"bufferView":0,
			"componentType":5126,
			"count":1378,
			"max":[
				0.8000001907348633,
				0.10000026971101761,
				0.8000001907348633
			],
			"min":[
				-0.8000001907348633,
				-2.423570890641713e-07,
				-0.8000002503395081
			],
			"type":"VEC3"
		},
		{
			"bufferView":1,
			"componentType":5126,
			"count":1378,
			"type":"VEC3"
		},
		{
			"bufferView":2,
			"componentType":5126,
			"count":1378,
			"type":"VEC2"
		},
		{
			"bufferView":3,
			"componentType":5123,
			"count":2412,
			"type":"SCALAR"
		}
	],
	"bufferViews":[
		{
			"buffer":0,
			"byteLength":16536,
			"byteOffset":0,
			"target":34962
		},
		{
			"buffer":0,
			"byteLength":16536,
			"byteOffset":16536,
			"target":34962
		},
		{
			"buffer":0,
			"byteLength":11024,
			"byteOffset":33072,
			"target":34962
		},
		{
			"buffer":0,
			"byteLength":4824,
			"byteOffset":44096,
			"target":34963
		}
	],
	"samplers":[
		{
			"magFilter":9729,
			"minFilter":9987
		}
	],
	"buffers":[
		{
			"byteLength":48920,
			"uri":"tile_floor_wines.bin"
		}
	]
}
