{
	"asset":{
		"copyright":"CirilXD",
		"generator":"Khronos glTF Blender I/O v4.1.63",
		"version":"2.0"
	},
	"extensionsUsed":[
		"KHR_materials_specular",
		"KHR_materials_ior"
	],
	"scene":0,
	"scenes":[
		{
			"name":"Scene",
			"nodes":[
				0
			]
		}
	],
	"nodes":[
		{
			"mesh":0,
			"name":"torch_off_handle"
		}
	],
	"materials":[
		{
			"extensions":{
				"KHR_materials_specular":{
					"specularColorFactor":[
						2.0,
						2.0,
						2.0
					]
				},
				"KHR_materials_ior":{
					"ior":1.2999999523162842
				}
			},
			"name":"MainTexMat_Metal",
			"pbrMetallicRoughness":{
				"baseColorTexture":{
					"index":0
				},
				"metallicFactor":0.3799999952316284,
				"roughnessFactor":0.10000000149011612
			}
		}
	],
	"meshes":[
		{
			"name":"torch_off_handle",
			"primitives":[
				{
					"attributes":{
						"POSITION":0,
						"NORMAL":1,
						"TEXCOORD_0":2
					},
					"indices":3,
					"material":0
				}
			]
		}
	],
	"textures":[
		{
			"sampler":0,
			"source":0
		}
	],
	"images":[
		{
			"mimeType":"image/png",
			"name":"MainTexturePalette",
			"uri":"MainTexturePalette.png"
		}
	],
	"accessors":[
		{
			"bufferView":0,
			"componentType":5126,
			"count":301,
			"max":[
				0.1000000461935997,
				1.100000262260437,
				0.10000002384185791
			],
			"min":[
				-0.09999999403953552,
				-3.029463613302141e-08,
				-0.10000035911798477
			],
			"type":"VEC3"
		},
		{
			"bufferView":1,
			"componentType":5126,
			"count":301,
			"type":"VEC3"
		},
		{
			"bufferView":2,
			"componentType":5126,
			"count":301,
			"type":"VEC2"
		},
		{
			"bufferView":3,
			"componentType":5123,
			"count":576,
			"type":"SCALAR"
		}
	],
	"bufferViews":[
		{
			"buffer":0,
			"byteLength":3612,
			"byteOffset":0,
			"target":34962
		},
		{
			"buffer":0,
			"byteLength":3612,
			"byteOffset":3612,
			"target":34962
		},
		{
			"buffer":0,
			"byteLength":2408,
			"byteOffset":7224,
			"target":34962
		},
		{
			"buffer":0,
			"byteLength":1152,
			"byteOffset":9632,
			"target":34963
		}
	],
	"samplers":[
		{
			"magFilter":9729,
			"minFilter":9987
		}
	],
	"buffers":[
		{
			"byteLength":10784,
			"uri":"torch_off_handle.bin"
		}
	]
}
